<svg width="15" height="15" viewBox="0 0 15 15" fill="none" xmlns="http://www.w3.org/2000/svg">
<path d="M2.02742 2.42086V3.55566H0.892616V2.42086H2.02742ZM2.02742 1.28606V2.42086H0.892616V1.28606H2.02742ZM2.02742 0.151255V1.28606H0.892616V0.151255H2.02742ZM3.16222 0.151255V1.28606H2.02742V0.151255H3.16222ZM3.16222 1.28606V2.42086H2.02742V1.28606H3.16222ZM3.16222 2.42086V3.55566H2.02742V2.42086H3.16222ZM3.16222 3.55566V4.69047H2.02742V3.55566H3.16222ZM2.02742 3.55566V4.69047H0.892616V3.55566H2.02742ZM4.29703 1.28606V2.42086H3.16222V1.28606H4.29703ZM5.43183 1.28606V2.42086H4.29703V1.28606H5.43183ZM5.43183 2.42086V3.55566H4.29703V2.42086H5.43183ZM5.43183 3.55566V4.69047H4.29703V3.55566H5.43183ZM5.43183 4.69047V5.82527H4.29703V4.69047H5.43183ZM4.29703 4.69047V5.82527H3.16222V4.69047H4.29703ZM4.29703 3.55566V4.69047H3.16222V3.55566H4.29703ZM4.29703 2.42086V3.55566H3.16222V2.42086H4.29703ZM6.56663 2.42086V3.55566H5.43183V2.42086H6.56663ZM6.56663 3.55566V4.69047H5.43183V3.55566H6.56663ZM6.56663 4.69047V5.82527H5.43183V4.69047H6.56663ZM6.56663 5.82527V6.96007H5.43183V5.82527H6.56663ZM7.70143 5.82527V6.96007H6.56663V5.82527H7.70143ZM8.83624 5.82527V6.96007H7.70143V5.82527H8.83624ZM8.83624 4.69047V5.82527H7.70143V4.69047H8.83624ZM9.97104 4.69047V5.82527H8.83624V4.69047H9.97104ZM7.70143 2.42086V3.55566H6.56663V2.42086H7.70143ZM7.70143 3.55566V4.69047H6.56663V3.55566H7.70143ZM7.70143 4.69047V5.82527H6.56663V4.69047H7.70143ZM8.83624 3.55566V4.69047H7.70143V3.55566H8.83624ZM9.97104 3.55566V4.69047H8.83624V3.55566H9.97104ZM9.97104 5.82527V6.96007H8.83624V5.82527H9.97104ZM11.1058 4.69047V5.82527H9.97104V4.69047H11.1058ZM11.1058 5.82527V6.96007H9.97104V5.82527H11.1058ZM11.1058 6.96007V8.09488H9.97104V6.96007H11.1058ZM11.1058 8.09488V9.22968H9.97104V8.09488H11.1058ZM12.2406 6.96007V8.09488H11.1058V6.96007H12.2406ZM12.2406 5.82527V6.96007H11.1058V5.82527H12.2406ZM12.2406 4.69047V5.82527H11.1058V4.69047H12.2406ZM13.3755 5.82527V6.96007H12.2406V5.82527H13.3755ZM13.3755 6.96007V8.09488H12.2406V6.96007H13.3755ZM13.3755 8.09488V9.22968H12.2406V8.09488H13.3755ZM12.2406 8.09488V9.22968H11.1058V8.09488H12.2406ZM11.1058 9.22968V10.3645H9.97104V9.22968H11.1058ZM12.2406 9.22968V10.3645H11.1058V9.22968H12.2406ZM9.97104 6.96007V8.09488H8.83624V6.96007H9.97104ZM9.97104 8.09488V9.22968H8.83624V8.09488H9.97104ZM9.97104 9.22968V10.3645H8.83624V9.22968H9.97104ZM9.97104 10.3645V11.4993H8.83624V10.3645H9.97104ZM8.83624 10.3645V11.4993H7.70143V10.3645H8.83624ZM8.83624 9.22968V10.3645H7.70143V9.22968H8.83624ZM8.83624 8.09488V9.22968H7.70143V8.09488H8.83624ZM8.83624 6.96007V8.09488H7.70143V6.96007H8.83624ZM7.70143 8.09488V9.22968H6.56663V8.09488H7.70143ZM7.70143 9.22968V10.3645H6.56663V9.22968H7.70143ZM7.70143 10.3645V11.4993H6.56663V10.3645H7.70143ZM7.70143 11.4993V12.6341H6.56663V11.4993H7.70143ZM6.56663 11.4993V12.6341H5.43183V11.4993H6.56663ZM6.56663 10.3645V11.4993H5.43183V10.3645H6.56663ZM6.56663 9.22968V10.3645H5.43183V9.22968H6.56663ZM6.56663 8.09488V9.22968H5.43183V8.09488H6.56663ZM5.43183 9.22968V10.3645H4.29703V9.22968H5.43183ZM4.29703 9.22968V10.3645H3.16222V9.22968H4.29703ZM4.29703 10.3645V11.4993H3.16222V10.3645H4.29703ZM4.29703 11.4993V12.6341H3.16222V11.4993H4.29703ZM4.29703 12.6341V13.7689H3.16222V12.6341H4.29703ZM5.43183 12.6341V13.7689H4.29703V12.6341H5.43183ZM5.43183 11.4993V12.6341H4.29703V11.4993H5.43183ZM5.43183 10.3645V11.4993H4.29703V10.3645H5.43183ZM3.16222 10.3645V11.4993H2.02742V10.3645H3.16222ZM2.02742 10.3645V11.4993H0.892616V10.3645H2.02742ZM2.02742 11.4993V12.6341H0.892616V11.4993H2.02742ZM2.02742 12.6341V13.7689H0.892616V12.6341H2.02742ZM2.02742 13.7689V14.9037H0.892616V13.7689H2.02742ZM3.16222 13.7689V14.9037H2.02742V13.7689H3.16222ZM3.16222 12.6341V13.7689H2.02742V12.6341H3.16222ZM3.16222 11.4993V12.6341H2.02742V11.4993H3.16222ZM14.5103 5.82527V6.96007H13.3755V5.82527H14.5103ZM14.5103 6.96007V8.09488H13.3755V6.96007H14.5103ZM14.5103 8.09488V9.22968H13.3755V8.09488H14.5103Z" fill="white"/>
</svg>
