<svg width="15" height="16" viewBox="0 0 15 16" fill="none" xmlns="http://www.w3.org/2000/svg">
<path d="M12.9687 2.79928V3.93408H14.1035V2.79928H12.9687ZM12.9687 1.66448V2.79928H14.1035V1.66448H12.9687ZM12.9687 0.529673V1.66448H14.1035V0.529673H12.9687ZM11.8339 0.529673V1.66448H12.9687V0.529673H11.8339ZM11.8339 1.66448V2.79928H12.9687V1.66448H11.8339ZM11.8339 2.79928V3.93408H12.9687V2.79928H11.8339ZM11.8339 3.93408V5.06889H12.9687V3.93408H11.8339ZM12.9687 3.93408V5.06889H14.1035V3.93408H12.9687ZM10.6991 1.66448V2.79928H11.8339V1.66448H10.6991ZM9.56427 1.66448V2.79928H10.6991V1.66448H9.56427ZM9.56427 2.79928V3.93408H10.6991V2.79928H9.56427ZM9.56427 3.93408V5.06889H10.6991V3.93408H9.56427ZM9.56427 5.06889V6.20369H10.6991V5.06889H9.56427ZM10.6991 5.06889V6.20369H11.8339V5.06889H10.6991ZM10.6991 3.93408V5.06889H11.8339V3.93408H10.6991ZM10.6991 2.79928V3.93408H11.8339V2.79928H10.6991ZM8.42946 2.79928V3.93408H9.56427V2.79928H8.42946ZM8.42946 3.93408V5.06889H9.56427V3.93408H8.42946ZM8.42946 5.06889V6.20369H9.56427V5.06889H8.42946ZM8.42946 6.20369V7.33849H9.56427V6.20369H8.42946ZM7.29466 6.20369V7.33849H8.42946V6.20369H7.29466ZM6.15986 6.20369V7.33849H7.29466V6.20369H6.15986ZM6.15986 5.06889V6.20369H7.29466V5.06889H6.15986ZM5.02505 5.06889V6.20369H6.15986V5.06889H5.02505ZM7.29466 2.79928V3.93408H8.42946V2.79928H7.29466ZM7.29466 3.93408V5.06889H8.42946V3.93408H7.29466ZM7.29466 5.06889V6.20369H8.42946V5.06889H7.29466ZM6.15986 3.93408V5.06889H7.29466V3.93408H6.15986ZM5.02505 3.93408V5.06889H6.15986V3.93408H5.02505ZM5.02505 6.20369V7.33849H6.15986V6.20369H5.02505ZM3.89025 5.06889V6.20369H5.02505V5.06889H3.89025ZM3.89025 6.20369V7.33849H5.02505V6.20369H3.89025ZM3.89025 7.33849V8.4733H5.02505V7.33849H3.89025ZM3.89025 8.4733V9.6081H5.02505V8.4733H3.89025ZM2.75545 7.33849V8.4733H3.89025V7.33849H2.75545ZM2.75545 6.20369V7.33849H3.89025V6.20369H2.75545ZM2.75545 5.06889V6.20369H3.89025V5.06889H2.75545ZM1.62064 6.20369V7.33849H2.75545V6.20369H1.62064ZM1.62064 7.33849V8.4733H2.75545V7.33849H1.62064ZM1.62064 8.4733V9.6081H2.75545V8.4733H1.62064ZM2.75545 8.4733V9.6081H3.89025V8.4733H2.75545ZM3.89025 9.6081V10.7429H5.02505V9.6081H3.89025ZM2.75545 9.6081V10.7429H3.89025V9.6081H2.75545ZM5.02505 7.33849V8.4733H6.15986V7.33849H5.02505ZM5.02505 8.4733V9.6081H6.15986V8.4733H5.02505ZM5.02505 9.6081V10.7429H6.15986V9.6081H5.02505ZM5.02505 10.7429V11.8777H6.15986V10.7429H5.02505ZM6.15986 10.7429V11.8777H7.29466V10.7429H6.15986ZM6.15986 9.6081V10.7429H7.29466V9.6081H6.15986ZM6.15986 8.4733V9.6081H7.29466V8.4733H6.15986ZM6.15986 7.33849V8.4733H7.29466V7.33849H6.15986ZM7.29466 8.4733V9.6081H8.42946V8.4733H7.29466ZM7.29466 9.6081V10.7429H8.42946V9.6081H7.29466ZM7.29466 10.7429V11.8777H8.42946V10.7429H7.29466ZM7.29466 11.8777V13.0125H8.42946V11.8777H7.29466ZM8.42946 11.8777V13.0125H9.56427V11.8777H8.42946ZM8.42946 10.7429V11.8777H9.56427V10.7429H8.42946ZM8.42946 9.6081V10.7429H9.56427V9.6081H8.42946ZM8.42946 8.4733V9.6081H9.56427V8.4733H8.42946ZM9.56427 9.6081V10.7429H10.6991V9.6081H9.56427ZM10.6991 9.6081V10.7429H11.8339V9.6081H10.6991ZM10.6991 10.7429V11.8777H11.8339V10.7429H10.6991ZM10.6991 11.8777V13.0125H11.8339V11.8777H10.6991ZM10.6991 13.0125V14.1473H11.8339V13.0125H10.6991ZM9.56427 13.0125V14.1473H10.6991V13.0125H9.56427ZM9.56427 11.8777V13.0125H10.6991V11.8777H9.56427ZM9.56427 10.7429V11.8777H10.6991V10.7429H9.56427ZM11.8339 10.7429V11.8777H12.9687V10.7429H11.8339ZM12.9687 10.7429V11.8777H14.1035V10.7429H12.9687ZM12.9687 11.8777V13.0125H14.1035V11.8777H12.9687ZM12.9687 13.0125V14.1473H14.1035V13.0125H12.9687ZM12.9687 14.1473V15.2821H14.1035V14.1473H12.9687ZM11.8339 14.1473V15.2821H12.9687V14.1473H11.8339ZM11.8339 13.0125V14.1473H12.9687V13.0125H11.8339ZM11.8339 11.8777V13.0125H12.9687V11.8777H11.8339ZM0.48584 6.20369V7.33849H1.62064V6.20369H0.48584ZM0.48584 7.33849V8.4733H1.62064V7.33849H0.48584ZM0.48584 8.4733V9.6081H1.62064V8.4733H0.48584Z" fill="white"/>
</svg>
